<svg width="142" height="40" viewBox="0 0 142 40" fill="none" xmlns="http://www.w3.org/2000/svg">
<path d="M40.5103 36.0482H41.7829V39.9332H42.276V36.0482H43.5429V35.559H40.5103V36.0482ZM45.8112 39.9351H48.3815V39.444H46.3062V37.9248H48.1044V37.4298H46.3062V36.0463H48.3815V35.5609H45.8112V39.9351ZM81.8288 35.4979C80.5943 35.4979 79.5815 36.5107 79.5815 37.7509C79.5815 38.9834 80.5943 39.9905 81.8269 39.9905C83.0671 39.9905 84.0799 38.9834 84.0799 37.7509C84.0799 36.5107 83.0671 35.4979 81.8288 35.4979ZM81.8269 39.4937C80.8676 39.4937 80.0822 38.7083 80.0822 37.749C80.0822 36.7839 80.8676 35.9966 81.8269 35.9966C82.7938 35.9966 83.5792 36.7839 83.5792 37.749C83.5792 38.7083 82.7938 39.4937 81.8269 39.4937ZM75.6335 35.5609H75.1405V39.9351H77.7776V39.444H75.6335V35.5609V35.5609ZM52.8282 36.0005C53.3079 36.0005 53.7474 36.2259 54.0627 36.5489L54.3513 36.161C53.9557 35.7616 53.4092 35.5055 52.8473 35.4998C51.6205 35.4998 50.6001 36.5221 50.6001 37.7528C50.6001 38.993 51.6339 39.9943 52.8493 39.9943C53.4952 39.9943 53.9863 39.7115 54.3494 39.3523L54.0646 38.9567C53.7493 39.2663 53.3289 39.4994 52.8359 39.4994C51.9416 39.4994 51.0988 38.7427 51.0988 37.7547C51.1007 36.7591 51.9492 36.0005 52.8282 36.0005ZM88.4483 37.6171V38.0624H90.0172C90.0191 38.0872 90.0191 38.1159 90.0191 38.1484C90.0191 38.9223 89.3465 39.4937 88.4923 39.4937C87.4833 39.4937 86.7094 38.7102 86.7094 37.749C86.7094 36.7591 87.5292 35.9928 88.4522 35.9928C88.8917 35.9928 89.4229 36.2298 89.7631 36.5661L90.0402 36.1572C89.6465 35.775 88.993 35.5036 88.456 35.4998C87.2215 35.4998 86.2087 36.5145 86.2087 37.749C86.2087 38.9834 87.2177 39.9924 88.4751 39.9924C89.6045 39.9924 90.5485 39.1535 90.5485 37.9267C90.5485 37.8025 90.537 37.6859 90.5294 37.6152H88.4483V37.6171ZM59.3293 37.5005H57.1126V35.5609H56.6196V39.9351H57.1126V37.9898H59.3293V39.9351H59.8204V35.5609H59.3293V37.5005ZM70.5313 35.4979C69.2968 35.4979 68.284 36.5107 68.284 37.7509C68.284 38.9834 69.2968 39.9905 70.5294 39.9905C71.7696 39.9905 72.7824 38.9834 72.7824 37.7509C72.7824 36.5107 71.7696 35.4979 70.5313 35.4979ZM70.5294 39.4937C69.5682 39.4937 68.7847 38.7083 68.7847 37.749C68.7847 36.7839 69.5682 35.9966 70.5294 35.9966C71.4944 35.9966 72.2817 36.7839 72.2817 37.749C72.2817 38.7083 71.4944 39.4937 70.5294 39.4937ZM65.4329 38.8191L62.4365 35.4921H62.4097V39.9389H62.9028V36.6712L65.901 40.0001H65.9259V35.5476H65.4329V38.8191ZM114.271 39.9351H114.764V35.5609H114.271V39.9351ZM138.529 35.5571L137.309 35.559V39.9332H138.529C139.891 39.9332 140.761 39.0828 140.761 37.7509C140.759 36.4094 139.891 35.5571 138.529 35.5571ZM138.532 39.4402H137.802V36.0501H138.525C139.583 36.0501 140.262 36.719 140.262 37.7528C140.262 38.7771 139.585 39.4402 138.532 39.4402ZM92.9047 39.9351H93.3977V35.5609H92.9047V39.9351ZM119.497 38.9567L117.411 35.4788H117.353V39.9332H117.846V36.9597L119.494 39.8606H119.499L121.145 36.9655V39.9332H121.638V35.4788H121.584L119.497 38.9567ZM109.861 35.5609H109.367V39.9351H112.005V39.444H109.861V35.5609V35.5609ZM126.988 36.0482H128.261V39.9332H128.754V36.0482H130.021V35.559H126.986V36.0482H126.988ZM124.227 39.9351H124.72V35.5609H124.227V39.9351ZM95.9889 39.9351H98.5592V39.444H96.4839V37.9248H98.2821V37.4298H96.4839V36.0463H98.5592V35.5609H95.9889V39.9351ZM102.48 37.4757C101.917 37.2579 101.435 37.1031 101.435 36.6807C101.435 36.2909 101.836 35.9813 102.307 35.9813C102.7 35.9813 103.052 36.203 103.193 36.5317L103.566 36.2814C103.403 35.8495 102.96 35.4941 102.312 35.4941C101.544 35.4941 100.94 35.9966 100.94 36.6693C100.94 37.3458 101.54 37.6076 102.077 37.8178C102.637 38.0299 103.264 38.2649 103.264 38.756C103.264 39.1879 102.798 39.4975 102.224 39.4975C101.76 39.4975 101.313 39.2472 101.114 38.8726L100.734 39.1516C100.942 39.6179 101.502 39.9924 102.221 39.9924C103.061 39.9924 103.759 39.5013 103.759 38.7465C103.759 38.0452 103.138 37.7413 102.48 37.4757ZM132.289 39.9351H134.86V39.444H132.784V37.9248H134.582V37.4298H132.784V36.0463H134.86V35.5609H132.289V39.9351Z" fill="#303030"/>
<path d="M112.954 0.00195312C112.093 0.00195312 111.336 0.313438 110.709 0.924942C110.08 1.54027 109.761 2.30274 109.761 3.19515C109.761 4.08756 110.08 4.85003 110.709 5.46536C111.336 6.07877 112.091 6.38835 112.954 6.38835C113.83 6.38835 114.592 6.07686 115.221 5.46536C115.85 4.85003 116.169 4.08756 116.169 3.19515C116.169 2.30465 115.85 1.54027 115.221 0.924942C114.592 0.311527 113.83 0.00195312 112.954 0.00195312Z" fill="url(#paint0_linear_244_1223)"/>
<path d="M45.4349 8.53048C42.8952 8.53048 40.6193 9.5815 38.6586 11.6511V10.2045H33.9462V40H38.6586V29.2968C40.6193 31.1255 42.8952 32.0504 45.4349 32.0504C48.6682 32.0504 51.4639 30.8924 53.7494 28.6031C56.0273 26.3157 57.1834 23.5161 57.1834 20.2809C57.1834 17.0514 56.0273 14.2538 53.7437 11.9702C51.4639 9.68851 48.6663 8.53048 45.4349 8.53048ZM50.3422 25.1901C48.995 26.5393 47.3439 27.2196 45.4349 27.2196C43.5258 27.2196 41.8767 26.5412 40.5352 25.1978C39.5358 24.2098 38.9032 23.0976 38.6567 21.888V18.6929C38.9032 17.4871 39.5358 16.3768 40.5371 15.3851C41.8786 14.0302 43.5239 13.3442 45.4329 13.3442C47.342 13.3442 48.993 14.0302 50.3403 15.3851C51.6875 16.738 52.3697 18.3891 52.3697 20.279C52.3735 22.1919 51.6894 23.8429 50.3422 25.1901ZM77.1471 23.9461C76.6598 24.5289 76.2757 24.9838 76.0922 25.1787C74.7393 26.5202 73.0844 27.2005 71.1773 27.2005C69.5988 27.2005 68.4522 26.9692 67.7662 26.5106L78.5516 15.7271L80.8256 13.4302L80.6594 13.2429C80.0938 12.6027 79.66 12.1231 79.4975 11.9587C79.1708 11.63 78.8306 11.3205 78.4886 11.03C76.4037 9.35983 73.9424 8.50946 71.1773 8.50946C67.9516 8.50946 65.1597 9.67132 62.8761 11.9587C60.583 14.25 59.4249 17.0476 59.4249 20.2809C59.4249 23.5142 60.583 26.3138 62.8742 28.6031C65.1597 30.8924 67.9516 32.0504 71.1754 32.0504C74.4087 32.0504 77.2082 30.8924 79.4956 28.6031C79.9695 28.1349 80.7033 27.2062 81.7448 25.7672L81.955 25.4787L77.2636 23.8028L77.1471 23.9461ZM64.2577 20.2809C64.2577 18.3738 64.938 16.7227 66.2852 15.3755C67.6344 14.0283 69.2797 13.3461 71.1754 13.3461C72.6926 13.3461 73.4914 13.5085 73.9061 13.6862L64.594 23.0136C64.4182 22.5932 64.2577 21.7925 64.2577 20.2809ZM102.536 11.2708C100.573 9.442 98.2975 8.51137 95.7597 8.51137C92.5245 8.51137 89.7269 9.67323 87.4433 11.9606C85.1635 14.248 84.0093 17.0476 84.0093 20.2809C84.0093 23.5161 85.1635 26.3176 87.4433 28.6031C89.7269 30.8924 92.5245 32.0504 95.7597 32.0504C98.2956 32.0504 100.571 31.1255 102.536 29.2968V31.5096H107.267V0H102.536V11.2708ZM102.536 21.8116C102.299 23.0365 101.668 24.1678 100.654 25.1806C99.3122 26.5202 97.6649 27.2005 95.7597 27.2005C93.8488 27.2005 92.1977 26.5202 90.8486 25.1806C89.5014 23.8372 88.8211 22.1919 88.8211 20.279C88.8211 18.3891 89.5014 16.738 90.8505 15.3851C92.1977 14.0302 93.8488 13.3442 95.7597 13.3442C97.6649 13.3442 99.3141 14.0302 100.654 15.3851C101.668 16.3979 102.297 17.5368 102.536 18.7732V21.8116ZM136.666 10.2045V11.2899C134.705 9.47258 132.433 8.54959 129.908 8.54959C126.675 8.54959 123.877 9.70954 121.596 11.9912C119.316 14.271 118.158 17.0686 118.158 20.3019C118.158 23.5353 119.314 26.3329 121.596 28.6165C123.881 30.8962 126.675 32.0504 129.908 32.0504C132.433 32.0504 134.705 31.1255 136.666 29.2968V31.5307H141.399V10.2045H136.666V10.2045ZM136.666 21.8116C136.43 23.0461 135.802 24.1869 134.806 25.1978C133.451 26.5412 131.802 27.2196 129.906 27.2196C127.996 27.2196 126.344 26.5393 124.997 25.1901C123.65 23.8429 122.97 22.2014 122.97 20.3019C122.97 18.3948 123.65 16.7457 124.997 15.4061C126.346 14.0665 127.999 13.3862 129.906 13.3862C131.8 13.3862 133.449 14.0665 134.8 15.4061C135.804 16.4189 136.429 17.5597 136.664 18.7961V21.8116H136.666ZM110.608 31.5096H115.32V8.50564H110.608V31.5096ZM24.273 3.176L22.6831 4.63405L24.2711 6.73036L22.2054 8.35276C24.4545 10.2771 25.7693 13.0996 25.7693 16.1036C25.7693 21.7084 21.248 26.2679 15.689 26.2679C11.5136 26.2679 7.81208 23.6728 6.31008 19.8299L2.60857 22.7365L0.890625 20.5121C2.79393 27.0151 8.78094 31.6663 15.689 31.6663C24.1966 31.6663 31.118 24.6837 31.118 16.1036C31.1218 10.8465 28.5402 6.04815 24.273 3.176Z" fill="url(#paint1_linear_244_1223)"/>
<path d="M14.5118 3.37657L15.1749 2.85488L14.657 2.18605L13.9939 2.70774L14.5118 3.37657ZM17.5979 1.56499L16.3902 0.00183105L14.8404 1.21911L16.0482 2.78226L17.5979 1.56499ZM12.5358 1.74653L11.4122 2.62939L12.2874 3.76258L13.411 2.87972L12.5358 1.74653ZM10.9421 2.17649L10.3937 1.46753L9.69043 2.01979L10.2389 2.72876L10.9421 2.17649ZM12.4116 1.19617L11.9969 0.659198L11.4638 1.0777L11.8785 1.61467L12.4116 1.19617ZM14.357 1.10254L13.7455 0.309494L12.9601 0.92673L13.5716 1.71978L14.357 1.10254ZM12.5091 4.50212L13.4474 5.71557L14.6512 4.76965L13.713 3.5562L12.5091 4.50212ZM21.7103 4.96457L20.0516 6.26783L21.3453 7.94183L23.004 6.63856L21.7103 4.96457ZM17.5826 2.42491L15.6946 3.90972L17.1661 5.81494L19.0541 4.33013L17.5826 2.42491ZM19.8204 1.45606L19.0655 0.479568L18.0967 1.24013L18.8515 2.21662L19.8204 1.45606ZM20.6383 4.59002L22.4212 3.18929L21.0319 1.39109L19.249 2.79182L20.6383 4.59002ZM15.0411 5.58372L15.4825 6.15509L16.0482 5.70984L15.6067 5.13846L15.0411 5.58372ZM18.0508 6.23344L18.6623 7.02648L19.4477 6.40924L18.8362 5.6162L18.0508 6.23344ZM4.49838 11.6949L5.51118 10.9L4.72196 9.87953L3.70915 10.6745L4.49838 11.6949ZM2.96388 11.2994L2.17466 10.2789L1.16186 11.0739L1.95108 12.0943L2.96388 11.2994ZM2.27785 13.818L1.28034 12.5262L0 13.5314L0.997516 14.8232L2.27785 13.818ZM3.9442 14.6206L4.94172 15.9124L6.22205 14.9053L5.22454 13.6135L3.9442 14.6206ZM4.03401 9.33873L3.49895 8.64506L2.81101 9.18394L3.34607 9.87762L4.03401 9.33873ZM4.32066 17.3494L4.98758 18.2132L5.84368 17.5405L5.17676 16.6768L4.32066 17.3494ZM8.67571 3.11668L9.03497 3.58104L9.49551 3.21987L9.13625 2.75551L8.67571 3.11668ZM1.40264 15.6086L2.63711 17.2061L4.22129 15.9602L2.98681 14.3626L1.40264 15.6086ZM9.9828 3.92883L10.472 4.56327L11.1007 4.06833L10.6115 3.4339L9.9828 3.92883ZM0.980318 19.3827L2.7575 21.6854L5.03917 19.8929L3.26199 17.5902L0.980318 19.3827ZM3.79515 12.3408L3.00975 12.9581L3.62125 13.7511L4.40665 13.1339L3.79515 12.3408ZM1.116 16.4226L0.116568 17.208L0.894324 18.2151L1.89375 17.4297L1.116 16.4226Z" fill="url(#paint2_linear_244_1223)"/>
<defs>
<linearGradient id="paint0_linear_244_1223" x1="112.964" y1="-0.274733" x2="112.964" y2="6.46515" gradientUnits="userSpaceOnUse">
<stop stop-color="#FFC74A"/>
<stop offset="1" stop-color="#F6851F"/>
</linearGradient>
<linearGradient id="paint1_linear_244_1223" x1="71.1456" y1="36.0729" x2="71.1456" y2="3.47252" gradientUnits="userSpaceOnUse">
<stop stop-color="#21409A"/>
<stop offset="1" stop-color="#33A3DC"/>
</linearGradient>
<linearGradient id="paint2_linear_244_1223" x1="6.35503" y1="4.94624" x2="14.3683" y2="14.481" gradientUnits="userSpaceOnUse">
<stop stop-color="#FFC74A"/>
<stop offset="1" stop-color="#F6851F"/>
</linearGradient>
</defs>
</svg>
